<?xml version="1.0" standalone="no"?>
<!DOCTYPE svg PUBLIC "-//W3C//DTD SVG 20010904//EN"
 "http://www.w3.org/TR/2001/REC-SVG-20010904/DTD/svg10.dtd">
<svg version="1.0" xmlns="http://www.w3.org/2000/svg"
 width="512.000000pt" height="512.000000pt" viewBox="0 0 512.000000 512.000000"
 preserveAspectRatio="xMidYMid meet">

<g transform="translate(0.000000,512.000000) scale(0.100000,-0.100000)"
fill="#000000" stroke="none">
<path d="M2478 4970 c-130 -23 -71 31 -1284 -1183 -1222 -1223 -1162 -1159
-1186 -1301 -14 -84 0 -177 39 -255 40 -81 355 -397 434 -435 110 -53 241 -55
360 -5 47 19 119 87 564 531 281 279 514 508 518 508 4 0 7 -530 7 -1178 0
-1046 2 -1184 16 -1232 20 -68 50 -115 107 -167 105 -96 177 -113 507 -113
330 0 402 17 507 113 57 52 87 99 107 167 14 48 16 186 16 1232 0 648 3 1178
7 1178 4 0 237 -229 518 -508 446 -445 517 -512 564 -531 119 -50 250 -48 360
5 80 39 396 355 435 435 39 81 52 164 39 250 -23 148 40 78 -1157 1278 -600
601 -1112 1110 -1138 1131 -27 21 -72 48 -101 59 -63 23 -173 33 -239 21z"/>
</g>
</svg>
